<svg xmlns="http://www.w3.org/2000/svg" fill="none" viewBox="0 0 512 512">
  <path fill="#18181B" d="M512 256C512 397.385 397.385 512 256 512C114.615 512 0 397.385 0 256C0 114.615 114.615 0 256 0C397.385 0 512 114.615 512 256Z"/>
  <path fill="#ffffff" d="M218.407 241.154V361H161V153.699H215.712V190.274H218.137C222.719 178.217 230.4 168.68 241.181 161.662C251.962 154.554 265.033 151 280.396 151C294.77 151 307.302 154.149 317.993 160.447C328.684 166.745 336.994 175.743 342.923 187.44C348.853 199.046 351.817 212.902 351.817 229.008V361H294.41V239.265C294.5 226.578 291.266 216.681 284.708 209.573C278.15 202.375 269.121 198.776 257.621 198.776C249.895 198.776 243.068 200.441 237.138 203.77C231.299 207.099 226.717 211.958 223.393 218.346C220.159 224.644 218.497 232.247 218.407 241.154Z"/>
  <style>
    @media (prefers-color-scheme:dark){:root{filter:invert(100%)}}
  </style>
</svg>
