<svg xmlns="http://www.w3.org/2000/svg" fill="none" viewBox="0 0 512 512">
  <path fill="#000000" d="M512 256C512 397.385 397.385 512 256 512C114.615 512 0 397.385 0 256C0 114.615 114.615 0 256 0C397.385 0 512 114.615 512 256Z"/>
  <path fill="#ffffff" d="M210.087 237.902V384H140V131.29H206.797V175.877H209.758C215.352 161.179 224.73 149.553 237.892 140.997C251.054 132.332 267.013 128 285.769 128C303.318 128 318.619 131.839 331.671 139.517C344.723 147.195 354.869 158.163 362.108 172.422C369.347 186.571 372.967 203.462 372.967 223.095V384H302.879V235.599C302.989 220.134 299.04 208.069 291.033 199.404C283.027 190.629 272.003 186.242 257.964 186.242C248.531 186.242 240.195 188.271 232.956 192.329C225.827 196.387 220.233 202.31 216.175 210.098C212.226 217.776 210.197 227.044 210.087 237.902Z"/>
  <style>
    @media (prefers-color-scheme:dark){:root{filter:invert(100%)}}
  </style>
</svg>
